<?xml version="1.0" encoding="iso-8859-1"?>
<!-- Generator: Adobe Illustrator 19.0.0, SVG Export Plug-In . SVG Version: 6.00 Build 0)  -->
<svg version="1.1" id="Layer_1" xmlns="http://www.w3.org/2000/svg" xmlns:xlink="http://www.w3.org/1999/xlink" x="0px" y="0px"
	 viewBox="0 0 512 512" style="enable-background:new 0 0 512 512;" xml:space="preserve">
<ellipse style="fill:#77AAD4;" cx="255.271" cy="256.004" rx="247.309" ry="248.041"/>
<path id="SVGCleanerId_0" style="fill:#1D71B8;" d="M255.999,7.963c-25.391,0-49.884,3.833-72.951,10.922
	c99.69,31.156,172.167,125.52,172.167,237.115s-72.476,205.96-172.167,237.115c23.067,7.089,47.56,10.923,72.951,10.923
	c136.987,0,248.038-111.051,248.038-248.038S392.986,7.963,255.999,7.963z"/>
<ellipse style="fill:#77AAD4;" cx="255.271" cy="256.004" rx="247.309" ry="248.041"/>
<g>
	<path id="SVGCleanerId_0_1_" style="fill:#1D71B8;" d="M255.999,7.963c-25.391,0-49.884,3.833-72.951,10.922
		c99.69,31.156,172.167,125.52,172.167,237.115s-72.476,205.96-172.167,237.115c23.067,7.089,47.56,10.923,72.951,10.923
		c136.987,0,248.038-111.051,248.038-248.038S392.986,7.963,255.999,7.963z"/>
</g>
<g>
	<rect x="189.861" y="99.214" style="fill:#FFFFFF;" width="33.071" height="15.925"/>
	<rect x="41.034" y="231.5" style="fill:#FFFFFF;" width="66.143" height="15.925"/>
	<rect x="123.718" y="264.572" style="fill:#FFFFFF;" width="57.872" height="15.925"/>
	<rect x="189.861" y="305.913" style="fill:#FFFFFF;" width="49.607" height="15.925"/>
</g>
<path style="fill:#1D1D1B;" d="M437.019,74.98C388.667,26.628,324.379,0,255.999,0S123.333,26.628,74.98,74.98S0,187.62,0,255.999
	s26.628,132.668,74.98,181.019C123.333,485.371,187.62,512,255.999,512s132.667-26.629,181.019-74.981S512,324.379,512,255.999
	S485.371,123.333,437.019,74.98z M489.7,311.274L311.273,489.699c-10.868,2.549-21.964,4.349-33.222,5.368l217.016-217.016
	C494.048,289.311,492.248,300.404,489.7,311.274z M280.173,67.392c-4.864-4.448-9.895-8.711-15.08-12.775l34.712-34.711
	c7.63,1.398,15.16,3.162,22.574,5.282L280.173,67.392z M339.348,30.74c6.655,2.458,13.2,5.201,19.608,8.248l-54.22,54.22
	c-4.193-5.072-8.581-9.977-13.149-14.707L339.348,30.74z M373.782,46.685c5.856,3.307,11.577,6.88,17.163,10.692l-65.226,65.225
	c-3.484-5.683-7.202-11.254-11.154-16.7L373.782,46.685z M403.949,66.896c5.156,4.05,10.161,8.337,15.02,12.837l-76.089,76.087
	c-2.726-6.398-5.726-12.691-8.985-18.869L403.949,66.896z M362.477,236.982c-0.607-8.363-1.619-16.646-3.025-24.832l93.511-93.51
	c3.871,5.525,7.486,11.199,10.858,16.998L362.477,236.982z M363.15,258.832l108.525-108.526c3.112,6.334,5.95,12.793,8.481,19.376
	L361.111,288.726C362.36,278.877,363.042,268.9,363.15,258.832z M356.076,316.286l129.822-129.824
	c2.202,7.316,4.06,14.75,5.555,22.283l-148.83,148.032C348.242,343.682,352.739,330.151,356.076,316.286z M311.647,410.044
	l182.83-181.845c0.996,8.686,1.527,17.474,1.58,26.339L254.538,496.057c-15.781-0.093-31.325-1.694-46.465-4.747
	C248.726,473.777,284.852,445.548,311.647,410.044z M443.291,105.788l-87.752,87.751c-1.812-7.252-3.944-14.412-6.389-21.464
	l81.155-81.156C434.86,95.721,439.183,100.686,443.291,105.788z M280.074,17.112l-27.958,27.958
	c-5.547-3.82-11.239-7.422-17.06-10.797l18.317-18.316c0.876-0.01,1.75-0.032,2.628-0.032
	C264.093,15.925,272.124,16.326,280.074,17.112z M208.074,20.688c7.033-1.417,14.154-2.513,21.344-3.3l-9.014,9.014
	C216.346,24.388,212.233,22.482,208.074,20.688z M81.668,421.053h124.726v-15.925H67.838
	c-33.639-42.276-51.913-94.296-51.913-149.128c0-51.31,16.003-100.154,45.622-140.86h111.774V99.214H74.175
	c3.845-4.446,7.867-8.775,12.066-12.974c27.18-27.18,59.733-47.029,95.261-58.579c46.764,15.227,88.687,45.317,118.25,84.955
	c19.363,25.963,33.036,55.002,40.593,85.814H107.177v15.925H343.67c2.369,13.625,3.582,27.539,3.582,41.645
	c0,0.103-0.003,0.204-0.003,0.306h-58.178v15.925h57.636c-0.807,12.205-2.518,24.237-5.123,36.023l-0.13,0.13l0.084,0.084
	c-7.261,32.708-21.356,63.518-41.783,90.909c-29.565,39.643-71.49,69.737-118.257,84.962c-35.526-11.55-68.078-31.4-95.258-58.581
	C84.692,424.208,83.17,422.637,81.668,421.053z M425.757,425.757c-23.694,23.694-51.474,41.812-81.743,53.725l135.469-135.469
	C467.57,374.285,449.452,402.064,425.757,425.757z"/>
<g>
</g>
<g>
</g>
<g>
</g>
<g>
</g>
<g>
</g>
<g>
</g>
<g>
</g>
<g>
</g>
<g>
</g>
<g>
</g>
<g>
</g>
<g>
</g>
<g>
</g>
<g>
</g>
<g>
</g>
</svg>
